<?xml version="1.0" encoding="UTF-8"?>
<!DOCTYPE svg PUBLIC "-//W3C//DTD SVG 1.1//EN" "http://www.w3.org/Graphics/SVG/1.1/DTD/svg11.dtd">
<!-- Creator: CorelDRAW (Evaluation Version) -->
<svg xmlns="http://www.w3.org/2000/svg" xml:space="preserve" width="1000mm" height="1000mm" version="1.1" style="shape-rendering:geometricPrecision; text-rendering:geometricPrecision; image-rendering:optimizeQuality; fill-rule:evenodd; clip-rule:evenodd"
viewBox="0 0 100000 100000"
 xmlns:xlink="http://www.w3.org/1999/xlink"
 xmlns:xodm="http://www.corel.com/coreldraw/odm/2003">
 <defs>
  <style type="text/css">
   <![CDATA[
    .fil1 {fill:black}
    .fil0 {fill:#626261}
    .fil2 {fill:#AAEA4C}
   ]]>
  </style>
 </defs>
 <g id="Layer_x0020_1">
  <metadata id="CorelCorpID_0Corel-Layer"/>
  <g id="_1914892044768">
   <path class="fil0" d="M24811.61 68899.46c-498.32,-302.65 -605.47,-522.75 -1332,-797.62 -2063.4,-780.55 -4512.08,230.71 -4965.75,-1529.34 -771.84,-2994.4 2518.42,-18362.77 3093.6,-22532.87 719.99,-5220.32 813.14,-9757.77 3212.62,-13965.93 626.84,-1099.29 1287.84,-1721.83 1840.93,-2486.83 499.3,-690.6 1502.54,-1403.05 2335.88,-1986.21 4028.66,-2819.28 8905.65,-3118.9 13476.91,-1174.76 1988.71,845.79 2656.18,1586.23 3840.88,2639.6 3942.14,3505.05 4797.75,8702.69 5878.3,13296.75 1229.68,5228.17 2284.93,8053.42 4333.72,12874.99 1405.75,3308.35 2791.49,5402.61 4575.48,8276.15 465.54,749.86 1373.99,1860.08 1687.28,2541.38 -1700.66,-69.08 -3356.47,94.38 -4943.82,499.27 -1812.31,462.34 -2224.48,1117.09 -3282.44,2041.21 -1297.37,-1460.47 -2696.49,-7741.4 -3292.3,-8940.26 -265.98,2000.49 -129.45,4094.14 158.43,6043.8 277.36,1878.37 888.6,3596.27 1156.71,5331.6 -3661.63,-185.73 -7789.9,-385.74 -10544.1,1374.64 -2101.87,1343.42 -2969.19,3531.36 -1626.92,5879.65 310.06,542.44 797.46,1392.32 1335.64,1655.56 -619.38,-1342.02 -1864.25,-2930.63 -1093.64,-4874.81 544.24,-1373.13 1929.61,-2222.4 3609.86,-2616.36 3551.77,-832.86 8005.99,-187.57 11800.46,-36.18 -333.8,-1197.88 -1498.08,-2307.85 -630.47,-3512.04 1974.09,-2739.87 8808.44,-1101.87 11938.91,-1330.44l-2468.94 -2802.86c-1175.12,-1255.31 -3972.99,-5216.56 -4798.52,-6613.42 -1736.93,-2939.03 -4520.84,-7998.3 -5225.93,-11437 571.01,379.8 1133.3,890.28 1820.3,1280.68 2044.94,1162.07 3957.44,2195.47 6330.65,2915.04 1482.12,449.37 8648.62,2808.14 9634.3,2391.84 214.09,-361.3 220.76,-567.29 124.79,-883.49 -178.48,-264.79 -750.8,-320.7 -1097.9,-397.76 -370.43,-82.27 -689.53,-173.66 -1060.16,-247.37 -5237.88,-1041.46 -10094.03,-2657.16 -14456.16,-5574.45 -2481.26,-1659.41 -2297.66,-2668.05 -2967.26,-6258.38 -1051.41,-5637.53 -3174.68,-10225.94 -7729.9,-13515.09 -2024.77,-1461.98 -4997.15,-2451.96 -7952.3,-2602.53 -5972.92,-304.37 -10691.1,2809.86 -13754.87,7501.94 -2718.88,4163.8 -3159.38,11865.13 -4005.05,17342.8 -773.14,5008.03 -3024.88,13892.63 -2997.63,18210.23 11.75,1861.71 459.32,2870.92 1947.01,3354.02 1605.55,521.41 3369.9,-125.97 4849.07,214.62 1550.83,357.13 1571.7,1675.7 2404.03,2929.61 907.96,1367.93 1189.29,1627.37 2400.06,2799.43 1643.45,1590.9 4043.35,3027.67 6681.77,3995.34 1796.35,658.84 6475.05,2020.42 8606.06,1774.99 -998.37,82.59 -5544.21,-1668.3 -6525.8,-2113.99 -2099.74,-953.51 -3904.16,-2130.15 -5316.41,-3351.19 -2839.41,-2454.99 -5937.19,-6791.99 -7027.97,-10493.35 -728.13,1222.35 -186.95,3578.25 22.59,4909.39z"/>
   <path class="fil1" d="M81676.13 55501.67c-9,1366.63 -1182.49,613.45 -2135.63,281.99 -885.94,-308.14 -1988.92,-641 -2765.74,-967.43 -90.41,-1552.06 1231.64,-679.95 2198.58,-344.48 904.84,313.91 2041.62,564.3 2702.79,1029.92zm2547.07 -1807.77c206.6,1399.49 -1147.95,657.98 -3125.2,-45.22 -614.1,-218.39 -3321.56,-972.87 -3488.3,-1412.26 -636.45,-1676.8 3945.29,417.33 4881.73,745.44 584.76,204.88 1323.41,282.93 1731.77,712.04zm-3667.44 -4134.86c1213.77,398.99 1859.71,404.15 2309.7,1056.03l-387.62 682.78c-589.99,-90.16 -3587.5,-1130.76 -3961,-1436.93 -148.32,-1485.11 1080.22,-617.06 2038.92,-301.88zm3610.1 -131.29c-138.12,-855.7 562.3,-2252.44 828.44,-3031.97 -513.67,-430.71 -5778.02,-2199.15 -6737.71,-2394.46 -367.73,564.75 -4334.14,11784.02 -4517.98,12801.21 2597.41,590.9 8621.37,3249.12 10422.55,3479.09 484.32,-739.54 3114.88,-8312.9 3437.18,-9535.34 -693.5,-198.78 -2992.96,-879.02 -3432.48,-1318.53z"/>
   <path class="fil2" d="M84165.86 49427.75c439.52,439.51 2738.98,1119.75 3432.48,1318.53 -322.3,1222.44 -2952.86,8795.8 -3437.18,9535.34 -1801.18,-229.97 -7825.14,-2888.19 -10422.55,-3479.09 183.84,-1017.19 4150.25,-12236.46 4517.98,-12801.21 959.69,195.31 6224.04,1963.75 6737.71,2394.46 -266.14,779.53 -966.56,2176.27 -828.44,3031.97zm-11507.14 7910.79c578.99,519.77 4691.46,1798.08 5865.53,2200.63 7044.7,2415.41 6158.52,3049.81 7502.88,-1034.54l2213.15 -6158.16c829.54,-2375.01 841.98,-1245.39 -1656.96,-5772.58 -858.36,-1555.01 -752.97,-1138.74 -2455.8,-1737.74 -1237.46,-435.3 -5528.62,-2151.64 -6518.23,-2054.81 -838.55,1059.96 -2041.13,5539.18 -2642.88,7132.08 -447.33,1184.09 -2498.69,6425.41 -2307.69,7425.12z"/>
   <path class="fil2" d="M39278.98 38441.07c539.17,1523.04 3152.95,2004.83 4890.57,1178.11 1583.41,-753.37 2455.19,-2200.95 2593.97,-4496.28 -1229.51,253.7 -6538.72,2711.19 -7484.54,3318.17z"/>
   <path class="fil2" d="M34374.98 38402.64c-1087.17,-483.1 -2386.35,-1149.96 -3637.8,-1681.47 -1090.9,-463.33 -2801.64,-1391.02 -3839.37,-1621.07 232.05,5818.71 6677.06,5943.33 7477.17,3302.54z"/>
   <path class="fil2" d="M82491.43 52981.86c-936.44,-328.11 -5518.18,-2422.24 -4881.73,-745.44 166.74,439.39 2874.2,1193.87 3488.3,1412.26 1977.25,703.2 3331.8,1444.71 3125.2,45.22 -408.36,-429.11 -1147.01,-507.16 -1731.77,-712.04z"/>
   <path class="fil2" d="M76774.76 54816.23c776.82,326.43 1879.8,659.29 2765.74,967.43 953.14,331.46 2126.63,1084.64 2135.63,-281.99 -661.17,-465.62 -1797.95,-716.01 -2702.79,-1029.92 -966.94,-335.47 -2288.99,-1207.58 -2198.58,344.48z"/>
   <path class="fil2" d="M78516.84 49860.92c373.5,306.17 3371.01,1346.77 3961,1436.93l387.62 -682.78c-449.99,-651.88 -1095.93,-657.04 -2309.7,-1056.03 -958.7,-315.18 -2187.24,-1183.23 -2038.92,301.88z"/>
  </g>
 </g>
</svg>
